<mxfile host="Electron" modified="2023-12-10T13:49:24.517Z" agent="Mozilla/5.0 (Macintosh; Intel Mac OS X 10_15_7) AppleWebKit/537.36 (KHTML, like Gecko) draw.io/22.0.3 Chrome/114.0.5735.289 Electron/25.8.4 Safari/537.36" etag="pu6N-xV3eGv9pDfTrpTg" version="22.0.3" type="device">
  <diagram name="Страница — 1" id="TWIJEeuGRXj0r5bxe30v">
    <mxGraphModel dx="2621" dy="1348" grid="1" gridSize="10" guides="1" tooltips="1" connect="1" arrows="1" fold="1" page="1" pageScale="1" pageWidth="827" pageHeight="1169" math="0" shadow="0">
      <root>
        <mxCell id="0" />
        <mxCell id="1" parent="0" />
        <mxCell id="KQx4U6ExPH6CREtwssww-2" value="" style="edgeStyle=orthogonalEdgeStyle;rounded=0;orthogonalLoop=1;jettySize=auto;html=1;fontSize=14;fontFamily=Times New Roman;" parent="1" source="KQx4U6ExPH6CREtwssww-4" target="KQx4U6ExPH6CREtwssww-18" edge="1">
          <mxGeometry relative="1" as="geometry" />
        </mxCell>
        <mxCell id="DGhqHUp2WjKUJnJkjYVc-5" style="edgeStyle=orthogonalEdgeStyle;rounded=0;orthogonalLoop=1;jettySize=auto;html=1;exitX=1;exitY=0.5;exitDx=0;exitDy=0;exitPerimeter=0;entryX=0.5;entryY=0;entryDx=0;entryDy=0;" edge="1" parent="1" source="KQx4U6ExPH6CREtwssww-4" target="DGhqHUp2WjKUJnJkjYVc-4">
          <mxGeometry relative="1" as="geometry" />
        </mxCell>
        <mxCell id="KQx4U6ExPH6CREtwssww-4" value="Стек не пуст?" style="strokeWidth=2;html=1;shape=mxgraph.flowchart.decision;whiteSpace=wrap;fontSize=14;fontFamily=Times New Roman;" parent="1" vertex="1">
          <mxGeometry x="-368.5" y="325" width="190" height="100" as="geometry" />
        </mxCell>
        <mxCell id="KQx4U6ExPH6CREtwssww-5" style="edgeStyle=orthogonalEdgeStyle;rounded=0;orthogonalLoop=1;jettySize=auto;html=1;entryX=0.5;entryY=0;entryDx=0;entryDy=0;entryPerimeter=0;exitX=0;exitY=0.5;exitDx=0;exitDy=0;exitPerimeter=0;fontSize=14;fontFamily=Times New Roman;" parent="1" source="KQx4U6ExPH6CREtwssww-7" target="KQx4U6ExPH6CREtwssww-10" edge="1">
          <mxGeometry relative="1" as="geometry" />
        </mxCell>
        <mxCell id="KQx4U6ExPH6CREtwssww-6" style="edgeStyle=orthogonalEdgeStyle;rounded=0;orthogonalLoop=1;jettySize=auto;html=1;entryX=0.5;entryY=0;entryDx=0;entryDy=0;fontSize=14;fontFamily=Times New Roman;" parent="1" source="KQx4U6ExPH6CREtwssww-7" target="KQx4U6ExPH6CREtwssww-24" edge="1">
          <mxGeometry relative="1" as="geometry">
            <Array as="points">
              <mxPoint x="-275" y="865" />
              <mxPoint x="-275" y="1085" />
            </Array>
          </mxGeometry>
        </mxCell>
        <mxCell id="KQx4U6ExPH6CREtwssww-7" value="В массиве не все&lt;br style=&quot;font-size: 14px;&quot;&gt;многоугольники являются охватывающими?" style="strokeWidth=2;html=1;shape=mxgraph.flowchart.decision;whiteSpace=wrap;fontSize=14;fontFamily=Times New Roman;" parent="1" vertex="1">
          <mxGeometry x="-521" y="815" width="200" height="100" as="geometry" />
        </mxCell>
        <mxCell id="KQx4U6ExPH6CREtwssww-8" style="edgeStyle=orthogonalEdgeStyle;rounded=0;orthogonalLoop=1;jettySize=auto;html=1;entryX=0.5;entryY=0;entryDx=0;entryDy=0;entryPerimeter=0;fontSize=14;fontFamily=Times New Roman;" parent="1" source="KQx4U6ExPH6CREtwssww-10" target="KQx4U6ExPH6CREtwssww-37" edge="1">
          <mxGeometry relative="1" as="geometry">
            <Array as="points">
              <mxPoint x="-422" y="945" />
            </Array>
          </mxGeometry>
        </mxCell>
        <mxCell id="KQx4U6ExPH6CREtwssww-9" style="edgeStyle=orthogonalEdgeStyle;rounded=0;orthogonalLoop=1;jettySize=auto;html=1;entryX=0.5;entryY=0;entryDx=0;entryDy=0;fontSize=14;fontFamily=Times New Roman;" parent="1" source="KQx4U6ExPH6CREtwssww-10" target="KQx4U6ExPH6CREtwssww-20" edge="1">
          <mxGeometry relative="1" as="geometry">
            <Array as="points">
              <mxPoint x="-700" y="945" />
              <mxPoint x="-700" y="975" />
            </Array>
          </mxGeometry>
        </mxCell>
        <mxCell id="KQx4U6ExPH6CREtwssww-10" value="В массиве есть &lt;br style=&quot;font-size: 14px;&quot;&gt;охватывающие &lt;br style=&quot;font-size: 14px;&quot;&gt;многоугольники?" style="strokeWidth=2;html=1;shape=mxgraph.flowchart.decision;whiteSpace=wrap;fontSize=14;fontFamily=Times New Roman;" parent="1" vertex="1">
          <mxGeometry x="-671" y="895" width="200" height="100" as="geometry" />
        </mxCell>
        <mxCell id="KQx4U6ExPH6CREtwssww-11" style="edgeStyle=orthogonalEdgeStyle;rounded=0;orthogonalLoop=1;jettySize=auto;html=1;entryX=0.5;entryY=0;entryDx=0;entryDy=0;entryPerimeter=0;exitX=0;exitY=0.5;exitDx=0;exitDy=0;exitPerimeter=0;fontSize=14;fontFamily=Times New Roman;" parent="1" source="KQx4U6ExPH6CREtwssww-12" target="KQx4U6ExPH6CREtwssww-7" edge="1">
          <mxGeometry relative="1" as="geometry">
            <mxPoint x="-421" y="770" as="sourcePoint" />
          </mxGeometry>
        </mxCell>
        <mxCell id="KQx4U6ExPH6CREtwssww-12" value="Площадь окна равна&lt;br style=&quot;font-size: 14px;&quot;&gt;одному пикселю?" style="strokeWidth=2;html=1;shape=mxgraph.flowchart.decision;whiteSpace=wrap;fontSize=14;fontFamily=Times New Roman;" parent="1" vertex="1">
          <mxGeometry x="-372.87" y="735" width="200" height="100" as="geometry" />
        </mxCell>
        <mxCell id="KQx4U6ExPH6CREtwssww-13" style="edgeStyle=orthogonalEdgeStyle;rounded=0;orthogonalLoop=1;jettySize=auto;html=1;entryX=0.5;entryY=0;entryDx=0;entryDy=0;fontSize=14;fontFamily=Times New Roman;" parent="1" source="KQx4U6ExPH6CREtwssww-14" target="KQx4U6ExPH6CREtwssww-22" edge="1">
          <mxGeometry relative="1" as="geometry" />
        </mxCell>
        <mxCell id="KQx4U6ExPH6CREtwssww-14" value="&lt;span style=&quot;font-size: 14px;&quot;&gt;Выделить в массиве многоугольников&lt;/span&gt;&lt;br style=&quot;font-size: 14px;&quot;&gt;&lt;span style=&quot;font-size: 14px;&quot;&gt;внешние и охватывающие&lt;/span&gt;" style="shape=process;whiteSpace=wrap;html=1;backgroundOutline=1;fontSize=14;strokeWidth=2;fontFamily=Times New Roman;" parent="1" vertex="1">
          <mxGeometry x="-368.5" y="545" width="190" height="67.5" as="geometry" />
        </mxCell>
        <mxCell id="KQx4U6ExPH6CREtwssww-15" style="edgeStyle=orthogonalEdgeStyle;rounded=0;orthogonalLoop=1;jettySize=auto;html=1;entryX=0.5;entryY=0;entryDx=0;entryDy=0;entryPerimeter=0;fontSize=14;fontFamily=Times New Roman;" parent="1" source="KQx4U6ExPH6CREtwssww-16" target="KQx4U6ExPH6CREtwssww-4" edge="1">
          <mxGeometry relative="1" as="geometry" />
        </mxCell>
        <mxCell id="KQx4U6ExPH6CREtwssww-16" value="Добавить исходное окно, представляющее проекцию, в стек" style="rounded=0;whiteSpace=wrap;html=1;strokeWidth=2;fontSize=14;fontFamily=Times New Roman;" parent="1" vertex="1">
          <mxGeometry x="-353.5" y="240" width="160" height="60" as="geometry" />
        </mxCell>
        <mxCell id="KQx4U6ExPH6CREtwssww-17" value="" style="edgeStyle=orthogonalEdgeStyle;rounded=0;orthogonalLoop=1;jettySize=auto;html=1;fontSize=14;fontFamily=Times New Roman;" parent="1" source="KQx4U6ExPH6CREtwssww-18" target="KQx4U6ExPH6CREtwssww-14" edge="1">
          <mxGeometry relative="1" as="geometry" />
        </mxCell>
        <mxCell id="KQx4U6ExPH6CREtwssww-18" value="Извлечь окно из стека" style="rounded=0;whiteSpace=wrap;html=1;strokeWidth=2;fontSize=14;fontFamily=Times New Roman;" parent="1" vertex="1">
          <mxGeometry x="-366.93" y="455" width="186.87" height="60" as="geometry" />
        </mxCell>
        <mxCell id="KQx4U6ExPH6CREtwssww-19" value="Закрасить пиксель цветом ближайшего к наблюдателю охватывающего многоугольника" style="rounded=0;whiteSpace=wrap;html=1;strokeWidth=2;fontSize=14;fontFamily=Times New Roman;" parent="1" vertex="1">
          <mxGeometry x="-221" y="835" width="190" height="90" as="geometry" />
        </mxCell>
        <mxCell id="KQx4U6ExPH6CREtwssww-20" value="Закрасить окно цветом фона" style="rounded=0;whiteSpace=wrap;html=1;strokeWidth=2;fontSize=14;fontFamily=Times New Roman;" parent="1" vertex="1">
          <mxGeometry x="-781" y="995" width="161" height="60" as="geometry" />
        </mxCell>
        <mxCell id="KQx4U6ExPH6CREtwssww-21" style="edgeStyle=orthogonalEdgeStyle;rounded=0;orthogonalLoop=1;jettySize=auto;html=1;entryX=0.5;entryY=0;entryDx=0;entryDy=0;entryPerimeter=0;fontSize=14;fontFamily=Times New Roman;" parent="1" source="KQx4U6ExPH6CREtwssww-22" target="KQx4U6ExPH6CREtwssww-12" edge="1">
          <mxGeometry relative="1" as="geometry" />
        </mxCell>
        <mxCell id="KQx4U6ExPH6CREtwssww-22" value="Удалить из массива внешние многоугольники" style="rounded=0;whiteSpace=wrap;html=1;strokeWidth=2;fontSize=14;fontFamily=Times New Roman;" parent="1" vertex="1">
          <mxGeometry x="-367.88" y="645" width="189.38" height="60" as="geometry" />
        </mxCell>
        <mxCell id="KQx4U6ExPH6CREtwssww-23" value="Закрасить окно цветом ближайшего к наблюдателю охватывающего многоугольника" style="rounded=0;whiteSpace=wrap;html=1;strokeWidth=2;fontSize=14;fontFamily=Times New Roman;" parent="1" vertex="1">
          <mxGeometry x="-661" y="1075" width="180" height="80" as="geometry" />
        </mxCell>
        <mxCell id="KQx4U6ExPH6CREtwssww-24" value="Разбить окно на подокна и добавить их в стек" style="rounded=0;whiteSpace=wrap;html=1;strokeWidth=2;fontSize=14;fontFamily=Times New Roman;" parent="1" vertex="1">
          <mxGeometry x="-355.38" y="1075" width="160" height="60" as="geometry" />
        </mxCell>
        <mxCell id="KQx4U6ExPH6CREtwssww-25" value="" style="endArrow=classic;html=1;rounded=0;exitX=0.5;exitY=1;exitDx=0;exitDy=0;entryX=0;entryY=0.5;entryDx=0;entryDy=0;entryPerimeter=0;fontSize=14;fontFamily=Times New Roman;" parent="1" source="KQx4U6ExPH6CREtwssww-24" target="KQx4U6ExPH6CREtwssww-4" edge="1">
          <mxGeometry width="50" height="50" relative="1" as="geometry">
            <mxPoint x="-351" y="735" as="sourcePoint" />
            <mxPoint x="-301" y="685" as="targetPoint" />
            <Array as="points">
              <mxPoint x="-275" y="1165" />
              <mxPoint x="-811" y="1165" />
              <mxPoint x="-811" y="375" />
            </Array>
          </mxGeometry>
        </mxCell>
        <mxCell id="KQx4U6ExPH6CREtwssww-26" value="" style="endArrow=none;html=1;rounded=0;entryX=0.5;entryY=1;entryDx=0;entryDy=0;fontSize=14;fontFamily=Times New Roman;" parent="1" target="KQx4U6ExPH6CREtwssww-23" edge="1">
          <mxGeometry width="50" height="50" relative="1" as="geometry">
            <mxPoint x="-741" y="1165" as="sourcePoint" />
            <mxPoint x="-691" y="1230" as="targetPoint" />
            <Array as="points">
              <mxPoint x="-571" y="1165" />
            </Array>
          </mxGeometry>
        </mxCell>
        <mxCell id="KQx4U6ExPH6CREtwssww-27" value="" style="endArrow=none;html=1;rounded=0;entryX=0.5;entryY=1;entryDx=0;entryDy=0;fontSize=14;fontFamily=Times New Roman;" parent="1" target="KQx4U6ExPH6CREtwssww-20" edge="1">
          <mxGeometry width="50" height="50" relative="1" as="geometry">
            <mxPoint x="-491" y="1165" as="sourcePoint" />
            <mxPoint x="-281" y="1130" as="targetPoint" />
            <Array as="points">
              <mxPoint x="-701" y="1165" />
            </Array>
          </mxGeometry>
        </mxCell>
        <mxCell id="KQx4U6ExPH6CREtwssww-28" value="" style="endArrow=none;html=1;rounded=0;entryX=0.5;entryY=1;entryDx=0;entryDy=0;fontSize=14;fontFamily=Times New Roman;" parent="1" target="KQx4U6ExPH6CREtwssww-19" edge="1">
          <mxGeometry width="50" height="50" relative="1" as="geometry">
            <mxPoint x="-331" y="1165" as="sourcePoint" />
            <mxPoint x="-41" y="1100" as="targetPoint" />
            <Array as="points">
              <mxPoint x="-126" y="1165" />
            </Array>
          </mxGeometry>
        </mxCell>
        <mxCell id="KQx4U6ExPH6CREtwssww-29" value="Да" style="text;html=1;strokeColor=none;fillColor=none;align=center;verticalAlign=middle;whiteSpace=wrap;rounded=0;fontSize=14;fontFamily=Times New Roman;" parent="1" vertex="1">
          <mxGeometry x="-271" y="425" width="40" height="20" as="geometry" />
        </mxCell>
        <mxCell id="KQx4U6ExPH6CREtwssww-30" value="Да" style="text;html=1;strokeColor=none;fillColor=none;align=center;verticalAlign=middle;whiteSpace=wrap;rounded=0;fontSize=14;fontFamily=Times New Roman;" parent="1" vertex="1">
          <mxGeometry x="-161" y="760" width="40" height="20" as="geometry" />
        </mxCell>
        <mxCell id="KQx4U6ExPH6CREtwssww-31" value="Да" style="text;html=1;strokeColor=none;fillColor=none;align=center;verticalAlign=middle;whiteSpace=wrap;rounded=0;fontSize=14;fontFamily=Times New Roman;" parent="1" vertex="1">
          <mxGeometry x="-321" y="840" width="40" height="20" as="geometry" />
        </mxCell>
        <mxCell id="KQx4U6ExPH6CREtwssww-32" value="Да" style="text;html=1;strokeColor=none;fillColor=none;align=center;verticalAlign=middle;whiteSpace=wrap;rounded=0;fontSize=14;fontFamily=Times New Roman;" parent="1" vertex="1">
          <mxGeometry x="-471" y="925" width="40" height="20" as="geometry" />
        </mxCell>
        <mxCell id="DGhqHUp2WjKUJnJkjYVc-2" style="edgeStyle=orthogonalEdgeStyle;rounded=0;orthogonalLoop=1;jettySize=auto;html=1;exitX=0.5;exitY=1;exitDx=0;exitDy=0;exitPerimeter=0;entryX=0.5;entryY=0;entryDx=0;entryDy=0;" edge="1" parent="1" source="DGhqHUp2WjKUJnJkjYVc-8" target="DGhqHUp2WjKUJnJkjYVc-1">
          <mxGeometry relative="1" as="geometry" />
        </mxCell>
        <mxCell id="KQx4U6ExPH6CREtwssww-33" value="Начало" style="strokeWidth=2;html=1;shape=mxgraph.flowchart.terminator;whiteSpace=wrap;fontSize=14;fontFamily=Times New Roman;" parent="1" vertex="1">
          <mxGeometry x="-353.5" y="1" width="156.25" height="60" as="geometry" />
        </mxCell>
        <mxCell id="KQx4U6ExPH6CREtwssww-34" value="Конец" style="strokeWidth=2;html=1;shape=mxgraph.flowchart.terminator;whiteSpace=wrap;fontSize=14;fontFamily=Times New Roman;" parent="1" vertex="1">
          <mxGeometry x="-130" y="657.5" width="156.25" height="60" as="geometry" />
        </mxCell>
        <mxCell id="KQx4U6ExPH6CREtwssww-35" style="edgeStyle=orthogonalEdgeStyle;rounded=0;orthogonalLoop=1;jettySize=auto;html=1;entryX=0.5;entryY=0;entryDx=0;entryDy=0;fontSize=14;fontFamily=Times New Roman;" parent="1" source="KQx4U6ExPH6CREtwssww-37" target="KQx4U6ExPH6CREtwssww-24" edge="1">
          <mxGeometry relative="1" as="geometry">
            <Array as="points">
              <mxPoint x="-275" y="1025" />
            </Array>
          </mxGeometry>
        </mxCell>
        <mxCell id="KQx4U6ExPH6CREtwssww-36" style="edgeStyle=orthogonalEdgeStyle;rounded=0;orthogonalLoop=1;jettySize=auto;html=1;entryX=0.5;entryY=0;entryDx=0;entryDy=0;fontSize=14;fontFamily=Times New Roman;" parent="1" source="KQx4U6ExPH6CREtwssww-37" target="KQx4U6ExPH6CREtwssww-23" edge="1">
          <mxGeometry relative="1" as="geometry">
            <Array as="points">
              <mxPoint x="-571" y="1025" />
            </Array>
          </mxGeometry>
        </mxCell>
        <mxCell id="KQx4U6ExPH6CREtwssww-37" value="Среди охватывающих многоугольников нет&lt;br style=&quot;font-size: 14px;&quot;&gt;ближайшего?" style="strokeWidth=2;html=1;shape=mxgraph.flowchart.decision;whiteSpace=wrap;fontSize=14;fontFamily=Times New Roman;" parent="1" vertex="1">
          <mxGeometry x="-531" y="965" width="220" height="120" as="geometry" />
        </mxCell>
        <mxCell id="KQx4U6ExPH6CREtwssww-38" value="Да" style="text;html=1;strokeColor=none;fillColor=none;align=center;verticalAlign=middle;whiteSpace=wrap;rounded=0;fontSize=14;fontFamily=Times New Roman;" parent="1" vertex="1">
          <mxGeometry x="-322.25" y="1000" width="40" height="20" as="geometry" />
        </mxCell>
        <mxCell id="KQx4U6ExPH6CREtwssww-39" style="edgeStyle=orthogonalEdgeStyle;rounded=0;orthogonalLoop=1;jettySize=auto;html=1;entryX=0.5;entryY=0;entryDx=0;entryDy=0;exitX=1;exitY=0.5;exitDx=0;exitDy=0;exitPerimeter=0;fontSize=14;fontFamily=Times New Roman;" parent="1" source="KQx4U6ExPH6CREtwssww-12" target="KQx4U6ExPH6CREtwssww-19" edge="1">
          <mxGeometry relative="1" as="geometry">
            <mxPoint x="-173.5" y="787.5015673981192" as="sourcePoint" />
            <mxPoint x="-116" y="835" as="targetPoint" />
            <Array as="points">
              <mxPoint x="-126" y="785" />
            </Array>
          </mxGeometry>
        </mxCell>
        <mxCell id="DGhqHUp2WjKUJnJkjYVc-3" style="edgeStyle=orthogonalEdgeStyle;rounded=0;orthogonalLoop=1;jettySize=auto;html=1;exitX=0.5;exitY=1;exitDx=0;exitDy=0;entryX=0.5;entryY=0;entryDx=0;entryDy=0;" edge="1" parent="1" source="DGhqHUp2WjKUJnJkjYVc-1" target="KQx4U6ExPH6CREtwssww-16">
          <mxGeometry relative="1" as="geometry" />
        </mxCell>
        <mxCell id="DGhqHUp2WjKUJnJkjYVc-1" value="Цикл по шести проекциям трехмерного объекта" style="shape=loopLimit;whiteSpace=wrap;html=1;strokeWidth=2;" vertex="1" parent="1">
          <mxGeometry x="-353.5" y="157" width="155.62" height="60" as="geometry" />
        </mxCell>
        <mxCell id="DGhqHUp2WjKUJnJkjYVc-14" style="edgeStyle=orthogonalEdgeStyle;rounded=0;orthogonalLoop=1;jettySize=auto;html=1;exitX=0.5;exitY=1;exitDx=0;exitDy=0;entryX=0.5;entryY=0;entryDx=0;entryDy=0;" edge="1" parent="1" source="DGhqHUp2WjKUJnJkjYVc-4" target="DGhqHUp2WjKUJnJkjYVc-10">
          <mxGeometry relative="1" as="geometry" />
        </mxCell>
        <mxCell id="DGhqHUp2WjKUJnJkjYVc-4" value="Цикл по шести проекциям трехмерного объекта" style="shape=loopLimit;whiteSpace=wrap;html=1;flipV=1;strokeWidth=2;" vertex="1" parent="1">
          <mxGeometry x="-125.31" y="489" width="146.87" height="60" as="geometry" />
        </mxCell>
        <mxCell id="DGhqHUp2WjKUJnJkjYVc-6" style="edgeStyle=orthogonalEdgeStyle;rounded=0;orthogonalLoop=1;jettySize=auto;html=1;exitX=0.5;exitY=1;exitDx=0;exitDy=0;entryX=0.5;entryY=0;entryDx=0;entryDy=0;entryPerimeter=0;" edge="1" parent="1" source="DGhqHUp2WjKUJnJkjYVc-10" target="KQx4U6ExPH6CREtwssww-34">
          <mxGeometry relative="1" as="geometry" />
        </mxCell>
        <mxCell id="DGhqHUp2WjKUJnJkjYVc-7" value="Инициировать отправку части изображения за счет DMA (отправка асинхронная)" style="rounded=0;whiteSpace=wrap;html=1;strokeWidth=2;fontSize=14;fontFamily=Times New Roman;" vertex="1" parent="1">
          <mxGeometry x="-124.31" y="385" width="144.31" height="90" as="geometry" />
        </mxCell>
        <mxCell id="DGhqHUp2WjKUJnJkjYVc-9" value="" style="edgeStyle=orthogonalEdgeStyle;rounded=0;orthogonalLoop=1;jettySize=auto;html=1;exitX=0.5;exitY=1;exitDx=0;exitDy=0;exitPerimeter=0;entryX=0.5;entryY=0;entryDx=0;entryDy=0;" edge="1" parent="1" source="KQx4U6ExPH6CREtwssww-33" target="DGhqHUp2WjKUJnJkjYVc-8">
          <mxGeometry relative="1" as="geometry">
            <mxPoint x="-275" y="61" as="sourcePoint" />
            <mxPoint x="-276" y="165" as="targetPoint" />
          </mxGeometry>
        </mxCell>
        <mxCell id="DGhqHUp2WjKUJnJkjYVc-8" value="Цикл по шести частям проекции трехмерного объекта" style="shape=loopLimit;whiteSpace=wrap;html=1;strokeWidth=2;" vertex="1" parent="1">
          <mxGeometry x="-352.87" y="78" width="155.62" height="60" as="geometry" />
        </mxCell>
        <mxCell id="DGhqHUp2WjKUJnJkjYVc-10" value="Цикл по шести частям проекции трехмерного объекта" style="shape=loopLimit;whiteSpace=wrap;html=1;flipV=1;strokeWidth=2;" vertex="1" parent="1">
          <mxGeometry x="-125.31" y="569.5" width="146.87" height="60" as="geometry" />
        </mxCell>
      </root>
    </mxGraphModel>
  </diagram>
</mxfile>
